<svg xmlns="http://www.w3.org/2000/svg" width="125.35" height="38.7" viewBox="0 0 125.35 38.7"><g transform="translate(0.036 -2.5)"><path d="M7.6,21.3c0-.1.1-.2.1-.3C8.5,15.1,9.8,9.3,11,3.5c0-.5.2-.6.5-.6H15c.3,0,.5.1.6.6,1,4.6,2,9.2,2.7,14l.6,3.6a.37.37,0,0,0,.1.3h.1a.37.37,0,0,1,.1-.3c.8-6,1.9-11.9,2.9-17.8.1-.5.2-.6.6-.6h3.4c.5,0,.6.2.5.8-1.7,8-3.4,15.9-5,23.9-.1.6-.3.7-.7.7H17.2c-.3,0-.5-.1-.6-.6-.7-3.4-1.5-6.8-2.1-10.3-.4-2.2-.7-4.5-1-6.7a.37.37,0,0,0-.1-.3c0,.1-.1.2-.1.3a129.067,129.067,0,0,1-2.7,15.1c-.1.6-.3,1.2-.4,1.9-.1.5-.3.7-.7.7H5.9c-.4,0-.6-.1-.7-.7C3.8,21,2.5,14.7,1.1,8.5.8,6.7.4,5,0,3.3c-.1-.5,0-.7.4-.7H3.9c.3,0,.5.1.6.6C5.6,9,6.7,14.9,7.5,20.8a.9.9,0,0,0,.1.5Z" fill="#fff"/><path d="M45.5,9.4A15.52,15.52,0,0,1,47.6,9c3.6-.3,6,2.8,6.1,6.9a40.07,40.07,0,0,1-.1,6c-.3,3.3-2,5.6-4.5,6.3a8.74,8.74,0,0,1-3.6.1,13.64,13.64,0,0,1-3.8-1.1c-.4-.2-.5-.4-.5-1V3.4c0-.7.1-.8.6-.8h2.9c.5,0,.6.2.6.8V9.2a.2.2,0,0,1,.2.2Zm4.1,9.2h0V16.3a2.37,2.37,0,0,0-1.4-2.5,3.41,3.41,0,0,0-2.6.3.52.52,0,0,0-.2.4v8.3a.52.52,0,0,0,.2.4,6.45,6.45,0,0,0,2,.3c1.2-.1,1.9-1.1,1.9-2.7A16.2,16.2,0,0,0,49.6,18.6Z" fill="#fff"/><path d="M30.8,20.5v1.1a2.19,2.19,0,0,0,2,2.2,5.85,5.85,0,0,0,3.7-1.2c.3-.2.4-.2.7.2.4.8.9,1.5,1.3,2.3.3.5.2.7-.1,1.1a7.24,7.24,0,0,1-5.9,2.2,5.82,5.82,0,0,1-3.1-1.1,6.77,6.77,0,0,1-2.6-5.7c-.1-1.9,0-3.8,0-5.7.1-3.4,1.8-6,4.4-6.7a6.11,6.11,0,0,1,4.4.3c2,.9,3.2,2.8,3.4,5.6.1,1.6.1,3.2.1,4.9,0,.4-.1.5-.4.6H31.3A1.34,1.34,0,0,0,30.8,20.5ZM35,17c0-1.2.1-2.4-.9-3.1a1.85,1.85,0,0,0-2.5.1c-.8.7-.7,1.9-.7,3Z" fill="#fff"/><path d="M61.2,7.8v5.6h6.5c.5,0,.7.1.7.9v3.5c0,.6-.1.8-.6.8H61.3v8.5c0,.7-.1.8-.6.8h-3c-.6,0-.7-.1-.7-.9V3.3c0-.6.1-.8.6-.8H69c.5,0,.6.2.6.8V7c0,.7-.1.8-.6.8Z" fill="#fe3709"/><path d="M83.5,18.7c0,1.2,0,2.4-.1,3.5-.3,3-1.6,4.9-3.8,5.7a6.57,6.57,0,0,1-5.8-.4c-1.8-1-2.8-2.9-3-5.5-.1-2.3-.1-4.5,0-6.8.2-3,1.6-5,3.8-5.8a6.57,6.57,0,0,1,5.8.4c1.8,1.1,2.8,3.1,3,5.7C83.5,16.6,83.4,17.7,83.5,18.7Zm-4.2,0V16.3a2.21,2.21,0,0,0-1.5-2.4,3.08,3.08,0,0,0-1-.1c-1.2.1-1.9,1-1.9,2.5v4.9c0,1.2.5,2.1,1.4,2.3a3.79,3.79,0,0,0,1.5,0c1-.2,1.5-1,1.5-2.3Z" fill="#fe4305"/><path d="M110.9,18.1v7.8c0,.7-.1.9-.6,1.2a10.68,10.68,0,0,1-6.3,1.2,5.16,5.16,0,0,1-3.6-1.9A8.17,8.17,0,0,1,98.7,22a14.769,14.769,0,0,1-.1-2.1V10.2c0-.6.1-.8.6-.8h3c.5,0,.6.2.6.8v9.9a7.569,7.569,0,0,0,.1,1.5c.2,1.2.7,1.8,1.6,2a4.42,4.42,0,0,0,2-.2c.2-.1.3-.2.3-.4V10.2c0-.5.1-.6.5-.6h3.1c.3,0,.5.2.5.6v7.9Z" fill="#fe6c06"/><path d="M119,28.4a8.93,8.93,0,0,1-5.6-2.3.8.8,0,0,1-.2-1.1c.4-.9.8-1.7,1.1-2.6.3-.6.4-.6.8-.3a5.05,5.05,0,0,0,4.3,1.4,3.18,3.18,0,0,0,.9-.3,1.29,1.29,0,0,0,.5-1.1,1,1,0,0,0-.6-1c-.6-.2-1.3-.4-1.9-.6a8.64,8.64,0,0,1-2.9-1.4c-2.6-2-2.3-6.4-.9-8.2A5.06,5.06,0,0,1,117.3,9a7.77,7.77,0,0,1,6.7,1.4.63.63,0,0,1,.2.9L123,14c-.2.5-.4.5-.7.3a6,6,0,0,0-3.3-1,2.92,2.92,0,0,0-.9.2,1.15,1.15,0,0,0-.6,1.1.92.92,0,0,0,.6,1l2,.6a9.87,9.87,0,0,1,2.8,1.2c1.5,1.1,2.1,2.9,2,5.2-.2,3-1.6,4.6-3.7,5.2a5.12,5.12,0,0,1-2.2.6Z" fill="#fe8007"/><path d="M85.6,18.5c0-1,0-2.2.1-3.4.4-3.1,1.9-5.2,4.2-5.9a6.67,6.67,0,0,1,6.2,1.2c.5.4.6.6.2,1.3l-1.2,2.4c-.3.6-.4.6-.9.3a3.83,3.83,0,0,0-2.5-.7c-1.2.1-1.9,1.1-2,2.6V21a2.34,2.34,0,0,0,1.9,2.5,4,4,0,0,0,2.9-.9c.5-.4.6-.4,1,.3s.9,1.7,1.3,2.5c.3.5.2.7-.2,1.1a6.72,6.72,0,0,1-5.1,1.8,6.94,6.94,0,0,1-2.8-.8c-1.8-1.1-2.8-3-3-5.6C85.6,20.8,85.7,19.7,85.6,18.5Z" fill="#fe560a"/><path d="M69.7,31.2a3.52,3.52,0,0,1,2.3.9.19.19,0,0,1,0,.3c-.2.3-.4.7-.6,1s-.2.2-.3.1a2.38,2.38,0,0,0-1.8-.5c-.1,0-.2.1-.4.1a.6.6,0,0,0-.3.6.46.46,0,0,0,.3.5c.3.1.7.3,1,.4a11.73,11.73,0,0,1,1.1.5,2.21,2.21,0,0,1,1,1.3,2.57,2.57,0,0,1-1.1,3,2.89,2.89,0,0,1-1.8.3A3.6,3.6,0,0,1,67,38.6a.19.19,0,0,1,0-.3c.2-.3.4-.7.6-1s.1-.2.3-.1a2.67,2.67,0,0,0,1.4.7,1.42,1.42,0,0,0,1.1-.1.63.63,0,0,0,.3-.8c0-.2-.2-.3-.3-.4a4.875,4.875,0,0,0-.7-.3,5.64,5.64,0,0,0-1.2-.4,2.4,2.4,0,0,1-1-1,2.56,2.56,0,0,1,.6-3.3,4.19,4.19,0,0,1,1.6-.4Z" fill="#fff"/><path d="M72.9,36.7V35.5a2.08,2.08,0,0,1,1.4-1.9,2.33,2.33,0,0,1,2,.2,2.15,2.15,0,0,1,1,1.9v2a2.25,2.25,0,0,1-1.4,2.1,2.21,2.21,0,0,1-1.6,0,2.13,2.13,0,0,1-1.4-2.2v-.9Zm1.5,0h0v.8a.67.67,0,0,0,.5.7h.4c.4,0,.6-.3.6-.7V35.7a.75.75,0,0,0-.5-.7c-.1,0-.3-.1-.4,0-.4.1-.6.3-.6.9Z" fill="#fff"/><path d="M92,36.7V35.5a2.08,2.08,0,0,1,1.4-1.9,2.37,2.37,0,0,1,2,.2,2.15,2.15,0,0,1,1,1.9v2a2.19,2.19,0,0,1-3.2,2A2.06,2.06,0,0,1,92,37.6a1.35,1.35,0,0,0,0-.9Zm1.5,0h0v.9a.67.67,0,0,0,.5.7h.3c.4,0,.6-.3.7-.8V36c0-.5-.2-.8-.6-.8s-.9.2-.9,1Z" fill="#fff"/><path d="M97.4,36.8V34.3c0-.2,0-.3.2-.4a4.49,4.49,0,0,1,2.3-.4,1.78,1.78,0,0,1,1.6,1.3,3,3,0,0,1,.2,1.3v3.3c0,.2,0,.2-.2.3h-1c-.2,0-.2-.1-.2-.3V35.8c-.1-.5-.3-.8-.7-.8a1.27,1.27,0,0,0-.6.1c-.1,0-.1.1-.1.2v4.1c0,.1,0,.2-.1.2H97.7c-.1,0-.1-.1-.1-.2v-.6a6.48,6.48,0,0,1-.2-2Z" fill="#fff"/><path d="M114.1,36.8V34.2c0-.2,0-.3.2-.3a4.49,4.49,0,0,1,2.3-.4,1.93,1.93,0,0,1,1.6,1.2,3.19,3.19,0,0,1,.3,1.4v3.4c0,.2,0,.2-.2.2h-1c-.2,0-.2-.1-.2-.3V36.2a1.27,1.27,0,0,0-.1-.6.66.66,0,0,0-.7-.6,1.27,1.27,0,0,0-.6.1c-.1,0-.1.1-.1.2v4.2a.35.35,0,0,1-.1.2h-1.1a.22.22,0,0,1-.2-.2v-2A2,2,0,0,1,114.1,36.8Z" fill="#fff"/><path d="M85.5,36.5V39c0,.2,0,.3-.2.4a4.13,4.13,0,0,1-2.2.4,2.25,2.25,0,0,1-1.4-.8,2.41,2.41,0,0,1-.4-1.5V33.9c0-.2,0-.3.2-.3h1c.2,0,.2,0,.2.3v3.5a.78.78,0,0,0,.6.8,1.27,1.27,0,0,0,.6-.1c.1,0,.1-.1.1-.2v-4c0-.3,0-.3.3-.3h1c.2,0,.2,0,.2.3Z" fill="#fff"/><path d="M104.5,39.8a2.88,2.88,0,0,1-2-.7c-.1-.1-.2-.2-.1-.4a5.938,5.938,0,0,0,.4-.8c.1-.3.1-.2.3-.1a2.1,2.1,0,0,0,1.5.5c.1,0,.2-.1.3-.1a.52.52,0,0,0,.2-.4c0-.2-.1-.3-.2-.3a2.35,2.35,0,0,0-.8-.2,2.35,2.35,0,0,1-1-.5,2.15,2.15,0,0,1,0-2.9,1.78,1.78,0,0,1,1-.4,2.88,2.88,0,0,1,2,.5c.1.1.2.2.1.3a5.941,5.941,0,0,1-.4.8c-.1.2-.1.2-.3.1a1.52,1.52,0,0,0-1.3-.3c-.1,0-.1,0-.2.1s-.2.2-.2.3.1.3.2.3a2.073,2.073,0,0,1,.6.2,4.87,4.87,0,0,1,1.1.4,1.81,1.81,0,0,1,.7,1.7,1.62,1.62,0,0,1-1.3,1.6c-.1,0-.2,0-.2.1A.4.4,0,0,1,104.5,39.8Z" fill="#fff"/><path d="M119.3,36.6a5.7,5.7,0,0,1,.1-1.3,2.05,2.05,0,0,1,1.5-1.8,2.24,2.24,0,0,1,2.1.4c.2.1.2.2.1.4a5.938,5.938,0,0,0-.4.8c-.1.3-.1.2-.3.1a1.2,1.2,0,0,0-.8-.2c-.5,0-.7.4-.7.9v1.3c0,.6.3.9.7.9a1.61,1.61,0,0,0,.9-.3c.2-.1.2-.1.3.1a5.937,5.937,0,0,1,.4.8c.1.3.1.2-.1.3a2.72,2.72,0,0,1-1.7.6,2.92,2.92,0,0,1-.9-.2,2.18,2.18,0,0,1-1.2-1.9v-.9Z" fill="#fff"/><path d="M87.9,33.8h.8c.2,0,.2,0,.2.3v1c0,.2,0,.2-.2.2h-.8v2.3c.1.3.2.5.5.5h.3c.1,0,.2,0,.2.2v1.1c0,.2,0,.2-.2.3a1.886,1.886,0,0,1-2.4-1.8V32.4c0-.3,0-.3.2-.3h.9c.1,0,.2,0,.2.2a9.92,9.92,0,0,1,.3,1.5Z" fill="#fff"/><path d="M78.2,34.7v-3c0-.2,0-.3.2-.3h1c.2,0,.2,0,.2.3v6c.1.3.2.5.5.5h.3c.1,0,.2,0,.2.2v1.1c0,.1,0,.2-.2.2a1.7,1.7,0,0,1-1,0,1.64,1.64,0,0,1-1.2-1.6Z" fill="#fff"/><path d="M113,35.5v3.8c0,.3,0,.3-.2.3h-1c-.3,0-.3,0-.3-.3V31.6c0-.2,0-.2.2-.2h1.1c.2,0,.2.1.2.3Z" fill="#fff"/><path d="M91.2,36.7v2.7c0,.2,0,.3-.2.3H90a.22.22,0,0,1-.2-.2V34c0-.2,0-.2.2-.2h1c.2,0,.2.1.2.2Z" fill="#fff"/><path d="M108.1,38h.4c.2,0,.3.1.2.3-.1.6-.3,1.1-.4,1.7-.1.3-.2.7-.3,1a.22.22,0,0,1-.2.2H107c-.2,0-.2-.1-.2-.3a27.41,27.41,0,0,0,.5-2.8c0-.2.1-.2.2-.2A1.49,1.49,0,0,0,108.1,38Z" fill="#fff"/><path d="M124.5,39.8c-.5,0-.8-.4-.8-1s.3-1,.8-1,.8.4.8,1a.85.85,0,0,1-.8,1Z" fill="#fff"/><path d="M90.5,30.9c.5,0,.8.4.8,1s-.3,1-.8,1-.8-.4-.8-1S90,30.9,90.5,30.9Z" fill="#fff"/></g></svg>