<svg version="1.1" id="Layer_1" xmlns="http://www.w3.org/2000/svg" xmlns:xlink="http://www.w3.org/1999/xlink" x="0px" y="0px"
	 width="100%" viewBox="0 0 818 197" enable-background="new 0 0 818 197" xml:space="preserve">
<path fill="#FEFEFE" opacity="1.000000" stroke="none" 
	d="
M452.000000,0.999999 
	C574.254456,1.000000 696.508972,1.000000 818.881714,1.000000 
	C818.881714,66.545288 818.881714,132.090851 818.881714,198.000000 
	C780.979858,198.000000 742.958618,198.000000 704.591125,197.657837 
	C706.125732,191.431137 708.006592,185.546600 710.104004,178.984329 
	C707.247681,178.984329 705.223999,178.660492 703.373901,179.087952 
	C701.923706,179.423004 699.810303,180.451706 699.506836,181.579895 
	C698.054810,186.977097 697.119202,192.513245 696.000000,198.000000 
	C464.447662,198.000000 232.895309,198.000000 1.000000,198.000000 
	C1.000000,134.312851 1.000000,70.625084 1.330517,6.643862 
	C2.111348,7.947311 2.567432,9.542613 3.011131,11.141352 
	C13.314350,48.265995 23.662523,85.378326 33.847290,122.535439 
	C34.874775,126.284019 36.261044,128.274338 40.545788,128.085938 
	C47.692253,127.771690 54.866890,127.854675 62.020988,128.065186 
	C65.350563,128.163147 66.850037,126.712486 67.606941,123.724693 
	C73.476257,100.556206 79.438332,77.411095 85.249100,54.228012 
	C86.330460,49.913780 86.860008,45.461239 87.644211,41.072525 
	C88.734108,42.029266 89.036407,42.920029 89.176590,43.835609 
	C93.287094,70.682259 101.164864,96.597466 108.493561,122.656807 
	C109.659584,126.802933 111.597931,128.313965 115.859734,128.084686 
	C122.003128,127.754196 128.198578,127.686562 134.332184,128.097824 
	C139.385971,128.436691 141.640671,126.684738 142.990616,121.691010 
	C153.264847,83.684601 163.848770,45.761971 174.258759,7.792008 
	C174.853348,5.623277 174.768585,3.268297 175.000000,1.000000 
	C207.687561,1.000000 240.375122,1.000000 273.446472,1.412678 
	C273.554230,3.257278 273.038788,4.688911 273.037079,6.121164 
	C272.992310,43.449123 273.031433,80.777214 272.948151,118.105042 
	C272.940674,121.455444 274.033356,123.204300 277.328278,124.249931 
	C290.146423,128.317719 303.230194,130.569260 316.660034,129.836853 
	C336.308014,128.765335 350.843353,117.456024 353.385406,99.316147 
	C355.029694,87.582603 354.895630,75.267723 353.356293,63.501442 
	C351.277588,47.612202 340.037994,37.096432 324.182526,34.985676 
	C316.361938,33.944565 308.241791,35.154076 300.001068,35.351334 
	C300.001068,27.439779 300.082733,18.617399 299.955109,9.798051 
	C299.912598,6.861375 299.333679,3.932463 299.000000,1.000001 
	C322.687561,1.000000 346.375122,1.000000 370.456177,1.312180 
	C370.619019,2.412229 370.388367,3.200098 370.082184,4.451968 
	C370.004272,43.893902 370.074554,82.872147 369.906830,121.849365 
	C369.886078,126.675964 371.376831,128.384048 376.184998,128.080078 
	C381.660004,127.733948 387.194946,127.701523 392.664276,128.089722 
	C397.494171,128.432556 398.713287,126.358902 398.606201,121.984367 
	C398.394257,113.327705 398.537323,104.662338 398.534882,96.000572 
	C398.533508,91.090843 398.534637,86.181122 398.534637,81.001282 
	C412.888763,81.001282 426.529083,80.883308 440.165039,81.075272 
	C444.106018,81.130753 445.574646,79.750641 445.446960,75.887375 
	C445.270996,70.564362 445.286652,65.227493 445.448792,59.903519 
	C445.553986,56.449581 444.077576,55.056232 440.722748,55.113487 
	C435.727020,55.198746 430.728760,55.139233 425.731598,55.139641 
	C416.790649,55.140373 407.849670,55.139851 398.817810,55.139851 
	C398.817810,45.625118 398.817810,36.711342 398.817810,27.239697 
	C400.925812,27.239697 402.716339,27.239971 404.506866,27.239651 
	C418.998688,27.237066 433.490845,27.178530 447.982025,27.272404 
	C451.447083,27.294849 453.248901,26.370581 453.063141,22.462839 
	C452.770935,16.315912 452.879425,10.149938 452.878571,3.745596 
	C452.768585,3.226941 452.598297,2.954716 452.439697,2.726330 
	C452.451416,2.770167 452.451477,2.670826 452.405334,2.382202 
	C452.239471,1.729052 452.119720,1.364525 452.000000,0.999999 
M697.915771,104.914429 
	C697.915771,104.914429 697.806274,104.764259 696.982849,104.871941 
	C690.265625,105.994949 683.540100,107.282036 676.698303,103.280968 
	C672.705017,99.528259 672.025085,94.615227 672.011719,89.533615 
	C671.969604,73.550407 671.852905,57.565002 672.081909,41.584991 
	C672.146057,37.110607 670.595459,35.713924 666.294189,35.931923 
	C660.648010,36.218086 654.974060,36.095486 649.316467,35.961483 
	C646.195801,35.887566 644.775879,36.957577 644.801636,40.261730 
	C644.945862,58.740795 644.541382,77.235039 645.157959,95.696251 
	C645.700562,111.942085 656.137390,124.237343 671.735168,128.221329 
	C682.846558,130.993317 693.922546,130.587936 705.772278,127.959023 
	C710.715637,126.573891 715.679749,125.257675 720.594604,123.777893 
	C723.565613,122.883354 725.091614,121.107918 725.072266,117.592499 
	C724.931763,91.970459 724.954590,66.347107 725.054016,40.724670 
	C725.067261,37.307556 723.925232,35.867615 720.458191,35.976883 
	C714.642639,36.160168 708.819824,36.115547 702.184509,36.023052 
	C697.838318,35.645439 697.999084,38.581066 697.992065,41.566181 
	C697.942749,62.646927 697.845337,83.727562 697.915771,104.914429 
M771.887878,129.706223 
	C781.429565,130.547073 790.808472,129.887680 799.852661,126.490662 
	C811.293457,122.193459 817.693176,112.964149 817.990967,100.469185 
	C818.273438,88.617569 812.956421,79.818062 801.234680,75.507332 
	C794.219727,72.927567 786.514099,72.225693 778.936462,70.002373 
	C777.702209,69.567047 776.475342,69.109024 775.232178,68.700821 
	C772.031555,67.649849 769.258484,66.156342 769.740967,62.141293 
	C770.170715,58.565990 772.704956,56.873573 775.978149,56.920609 
	C781.392273,56.998417 786.839844,57.253708 792.197144,57.989044 
	C796.450562,58.572868 801.590576,61.985691 804.522766,60.518002 
	C808.063110,58.745857 809.692566,53.150917 812.139893,49.204868 
	C812.665466,48.357437 813.664368,47.410393 813.551331,46.640633 
	C813.303406,44.953899 812.956848,42.440384 811.824829,41.851151 
	C795.122314,33.157761 777.693237,31.059311 759.865479,37.814144 
	C749.708862,41.662407 743.910950,49.384460 743.061340,60.452435 
	C742.176941,71.974136 746.893494,80.685715 757.091553,85.790894 
	C762.659912,88.578445 768.874512,90.143326 774.891724,91.945610 
	C780.331299,93.574875 786.503113,93.221977 790.680786,98.858467 
	C790.919067,102.564919 788.926208,104.704315 785.567871,105.481300 
	C782.427490,106.207855 779.192200,106.524170 775.244690,106.781937 
	C768.103455,104.329865 760.876526,102.094078 753.864807,99.315079 
	C751.205322,98.261032 749.603943,98.102028 748.126221,100.717415 
	C745.762207,104.901459 743.328369,109.048195 740.829407,113.153038 
	C739.207703,115.816788 739.666870,117.677597 742.370361,119.337044 
	C751.205933,124.760582 760.445435,128.937042 771.887878,129.706223 
M520.395691,36.584343 
	C513.326721,35.821232 506.257782,35.058121 498.611084,34.168495 
	C498.298035,34.358665 497.984985,34.548836 497.235718,34.270947 
	C496.643982,34.482800 496.052246,34.694649 494.766418,34.704941 
	C493.826904,34.882450 492.887390,35.059959 491.275299,35.147110 
	C490.656281,35.386719 490.037231,35.626328 488.690613,35.833702 
	C473.654999,39.585991 463.531067,48.698555 461.876129,64.290871 
	C460.605530,76.262291 460.771759,88.577621 461.980072,100.570633 
	C463.383240,114.497688 472.380951,123.492508 485.581512,127.324371 
	C492.078400,129.210281 499.172272,129.039597 506.843842,129.937347 
	C509.647369,129.589218 512.479736,129.393021 515.249695,128.867920 
	C531.474854,125.792130 542.604065,115.199104 544.403870,99.010666 
	C545.627930,88.001266 545.591980,76.654694 544.458923,65.629570 
	C543.001648,51.449932 535.037842,41.460876 520.395691,36.584343 
M586.172424,35.830505 
	C571.670959,39.710117 562.127563,48.675961 559.963440,63.710136 
	C558.696838,72.509666 559.261353,81.573151 559.007996,90.518074 
	C558.367188,113.143913 572.533875,128.527328 596.899597,129.916168 
	C608.814636,130.650497 619.927368,128.222809 630.139465,121.824142 
	C633.308655,119.838394 634.263855,117.831688 631.929749,114.582428 
	C629.224304,110.816345 626.657593,106.945557 624.154907,103.040588 
	C622.464355,100.402824 620.554504,100.395729 617.799072,101.467690 
	C613.059387,103.311584 608.124329,104.653275 602.503967,106.083794 
	C590.898071,105.563095 586.659485,101.248795 586.556763,89.766960 
	C586.506165,84.115685 586.589844,78.463120 586.529663,72.812019 
	C586.456055,65.899948 589.329041,61.002857 596.790405,58.596447 
	C603.427551,57.070465 609.665771,58.483856 615.632751,61.350609 
	C618.483643,62.720310 620.510437,62.601086 622.279663,59.606995 
	C624.640503,55.611603 627.270386,51.765408 629.947937,47.970264 
	C631.931763,45.158466 631.549255,43.100609 628.537964,41.478039 
	C620.567810,37.183571 612.256897,34.090683 602.352661,34.043232 
	C601.893494,34.089169 601.434265,34.135105 600.333252,34.017982 
	C599.898865,34.074421 599.464478,34.130859 598.229248,34.052368 
	C597.157471,34.155540 596.085693,34.258713 594.253845,34.218029 
	C591.819031,34.769360 589.384216,35.320690 586.172424,35.830505 
M207.615265,103.998550 
	C203.764511,100.617241 202.904648,96.294128 203.379105,90.997215 
	C205.460144,90.997215 207.258591,90.997017 209.057022,90.997253 
	C223.380676,90.999130 237.704987,90.926544 252.027496,91.055283 
	C255.620926,91.087578 257.197754,89.954819 257.056183,86.173416 
	C256.832001,80.185532 257.132294,74.178459 256.925262,68.189377 
	C256.330322,50.979610 246.398651,38.734917 229.623672,35.356670 
	C223.670288,34.157742 217.329224,33.818783 211.278992,34.360031 
	C190.834732,36.188931 178.441788,46.776436 176.496796,65.123993 
	C175.310364,76.315964 175.712616,87.773720 176.454330,99.042786 
	C177.079956,108.548569 181.844955,116.423111 189.788681,122.066147 
	C206.334335,133.819778 237.867950,132.308701 253.261337,119.104393 
	C255.421783,117.251183 255.925201,115.442184 254.138962,113.115005 
	C252.111923,110.474106 249.828537,107.967705 248.205673,105.092880 
	C245.503403,100.306007 242.765045,100.104668 237.843246,102.611549 
	C228.461639,107.390015 218.450165,109.716263 207.615265,103.998550 
M457.325043,175.077393 
	C458.208466,179.672699 454.437012,179.033936 452.406403,178.662857 
	C448.425964,177.935486 444.612274,176.295563 440.385315,174.921387 
	C438.669342,177.460968 436.832428,180.179581 435.035431,182.839142 
	C441.956879,190.054276 452.667236,192.062469 461.897644,188.153580 
	C467.267120,185.879715 469.814331,181.736008 469.990784,176.077515 
	C470.165649,170.468567 467.484406,166.446854 462.413910,164.271698 
	C459.224976,162.903687 455.765259,162.180679 452.495361,160.981918 
	C450.842041,160.375793 449.340454,159.355820 446.918335,158.071121 
	C453.510925,154.179016 458.497559,157.108673 463.718170,158.864227 
	C465.642700,155.936157 467.428650,153.218933 469.184540,150.547455 
	C462.212219,144.796478 451.825592,143.329132 443.973938,146.735214 
	C436.322784,150.054306 433.506561,158.690125 438.639221,165.276703 
	C440.924927,168.209839 444.809601,170.077789 448.261658,171.862122 
	C450.866272,173.208420 453.936829,173.653214 457.325043,175.077393 
M629.030029,168.038330 
	C626.916199,159.751785 621.245300,156.057541 612.243530,157.103073 
	C604.123901,158.046143 600.102356,162.700775 599.997375,171.289780 
	C599.979065,172.788620 599.976929,174.288132 599.997620,175.786911 
	C600.127808,185.216812 605.163513,190.051193 614.795105,190.003845 
	C624.128418,189.957977 629.046570,185.153015 629.170898,175.915665 
	C629.202209,173.585312 629.129456,171.253555 629.030029,168.038330 
M480.985260,188.925201 
	C482.605103,189.269180 484.209595,189.767960 485.847443,189.930328 
	C492.907928,190.630219 498.629791,187.878159 500.969025,182.773315 
	C503.811096,176.570984 502.458862,164.215805 498.361786,160.620773 
	C497.034546,159.456161 495.337250,158.550140 493.655243,157.980682 
	C485.531616,155.230438 477.047577,158.071518 474.199982,164.343552 
	C470.315857,172.898621 473.175568,184.344299 480.985260,188.925201 
M539.001831,168.485703 
	C539.001831,165.071136 539.001831,161.656570 539.001831,158.290100 
	C534.880859,158.290100 531.613708,158.290100 527.827148,158.290100 
	C527.827148,164.194626 527.757812,169.815704 527.842529,175.434479 
	C527.990662,185.265793 533.052795,190.278870 542.820618,189.920258 
	C546.271362,189.793564 549.739868,188.975845 553.095093,188.079620 
	C554.223999,187.778046 555.830444,186.276794 555.854004,185.291183 
	C556.067993,176.356049 555.979431,167.413666 555.979431,158.324844 
	C551.970459,158.324844 548.585144,158.324844 544.650146,158.324844 
	C544.650146,165.708496 544.650146,172.777863 544.650146,179.727478 
	C540.270813,180.848770 538.866455,179.090790 538.991638,175.456909 
	C539.060425,173.459946 539.002563,171.458618 539.001831,168.485703 
M648.231140,166.909363 
	C649.153198,168.605759 650.762634,170.259750 650.870361,172.006393 
	C651.213318,177.565048 650.997375,183.158188 650.997375,188.732620 
	C655.093140,188.732620 658.357361,188.732620 661.919250,188.732620 
	C661.919250,181.520248 662.330933,174.549179 661.784851,167.653946 
	C661.371399,162.431808 658.018555,158.256836 652.661865,157.860596 
	C647.167786,157.454163 641.550171,158.494904 636.013550,159.135330 
	C635.220947,159.227020 633.974365,160.619034 633.961365,161.425766 
	C633.814880,170.503815 633.868652,179.585083 633.868652,188.573975 
	C637.986389,188.573975 641.357483,188.573975 645.002441,188.573975 
	C645.002441,182.337677 644.863647,176.520081 645.108643,170.718704 
	C645.163818,169.410522 646.556335,168.158798 648.231140,166.909363 
M756.605835,157.009003 
	C753.344666,157.612320 750.048889,158.079453 746.841431,158.894165 
	C745.745972,159.172440 744.040100,160.305664 744.023682,161.078262 
	C743.827271,170.311157 743.896912,179.549713 743.896912,188.693359 
	C747.993103,188.693359 751.254517,188.693359 755.022522,188.693359 
	C755.022522,181.317368 755.022522,174.232315 755.022522,167.187057 
	C760.435364,166.961319 760.915222,167.302261 760.976013,171.748047 
	C761.052612,177.349075 760.994507,182.951935 760.994507,188.649094 
	C765.030945,188.649094 768.413757,188.649094 772.166016,188.649094 
	C772.166016,182.990860 772.197327,177.686493 772.159424,172.382614 
	C772.084778,161.944702 767.921875,157.600952 756.605835,157.009003 
M674.301086,176.363403 
	C676.994751,177.134048 679.688416,177.904694 682.382019,178.675339 
	C682.226746,179.402390 682.071472,180.129456 681.916138,180.856506 
	C677.967773,180.175003 674.019470,179.493500 669.524414,178.717636 
	C668.463501,180.529449 667.092773,182.870193 665.640320,185.350616 
	C672.953125,190.404037 680.352966,191.365616 687.905090,188.455170 
	C690.173401,187.581009 692.383911,184.878952 693.302612,182.504257 
	C695.777832,176.106277 691.855164,170.866669 683.953857,169.100143 
	C681.954407,168.653122 679.990234,168.048370 678.009827,167.516083 
	C678.121765,167.019592 678.233704,166.523087 678.345642,166.026596 
	C680.113037,166.026596 682.137085,165.460648 683.603027,166.125381 
	C689.672852,168.877731 690.920288,164.478592 692.887817,160.268951 
	C687.673767,157.135452 682.231506,156.395508 676.505859,157.362473 
	C671.729919,158.169037 667.922241,160.337769 667.135498,165.604126 
	C666.361084,170.787430 668.841858,174.192032 674.301086,176.363403 
M786.580139,189.252594 
	C792.498352,190.759949 797.962097,190.223801 802.760437,186.163834 
	C800.584656,181.624802 798.960144,178.151352 792.772949,179.854446 
	C787.951172,181.181686 788.331787,176.371063 788.183838,173.072327 
	C788.026123,169.554016 788.650391,165.891769 793.059387,167.055618 
	C799.676819,168.802490 800.099670,163.952271 802.187683,160.401672 
	C793.148804,154.790253 782.378296,156.464172 778.563049,163.786987 
	C773.799622,172.929871 777.284302,185.135010 786.580139,189.252594 
M569.544861,189.340347 
	C578.911682,191.198776 580.281677,189.884888 578.611572,180.644943 
	C572.422852,179.466858 571.829468,178.015793 573.558411,168.188263 
	C574.998108,168.051804 576.456970,167.913513 578.196106,167.748672 
	C578.196106,164.865036 578.196106,162.109100 578.196106,159.150848 
	C576.485779,158.937195 574.890076,158.737869 573.073975,158.511002 
	C572.575317,155.679001 572.098267,152.969254 571.645142,150.395691 
	C568.224731,150.395691 565.182983,150.395691 561.921509,150.395691 
	C561.921509,160.417862 561.821045,170.040176 561.965332,179.658813 
	C562.033936,184.233322 564.375610,187.484482 569.544861,189.340347 
M507.825195,172.452606 
	C508.186066,176.225128 507.970428,180.172684 509.049530,183.727158 
	C510.492676,188.480637 516.956726,191.316757 522.346802,189.832443 
	C527.550720,188.399384 524.083313,183.998978 524.819580,181.014191 
	C524.871094,180.805237 524.477600,180.486511 524.145081,180.009399 
	C519.721619,180.428268 518.825928,177.895111 518.929260,173.855011 
	C519.161804,164.762314 519.002258,155.659622 519.002258,146.318298 
	C515.063049,146.318298 511.688354,146.318298 507.825165,146.318298 
	C507.825165,154.912521 507.825165,163.189529 507.825195,172.452606 
M725.989319,151.643188 
	C725.989319,163.913467 725.989319,176.183746 725.989319,188.720627 
	C730.121460,188.720627 733.674072,188.720627 737.439331,188.720627 
	C737.439331,174.402496 737.439331,160.375900 737.439331,146.194885 
	C733.585266,146.194885 730.140198,146.194885 726.318909,146.194885 
	C726.200928,147.796295 726.094666,149.238419 725.989319,151.643188 
M594.141541,158.242737 
	C590.882263,158.242737 587.622986,158.242737 584.180115,158.242737 
	C584.180115,168.588226 584.180115,178.593353 584.180115,188.610382 
	C587.929626,188.610382 591.297119,188.610382 594.783264,188.610382 
	C594.783264,178.456604 594.783264,168.691132 594.141541,158.242737 
M593.614868,152.315399 
	C596.505371,147.300339 595.370422,142.764816 590.710815,142.306030 
	C588.623901,142.100555 585.453003,143.245453 584.408752,144.844910 
	C583.379944,146.420593 583.653931,149.803696 584.717041,151.578934 
	C586.627686,154.769485 589.918457,154.647903 593.614868,152.315399 
M813.227600,189.912277 
	C816.329651,189.115875 818.486023,187.184982 818.019592,183.942398 
	C817.753296,182.091370 816.402588,179.471176 814.920837,178.946472 
	C812.915833,178.236435 809.883911,178.534698 808.113525,179.674942 
	C806.787842,180.528748 805.680725,184.044220 806.390015,185.222061 
	C807.630127,187.281311 810.341248,188.454666 813.227600,189.912277 
z"/>
<path fill="#565656" opacity="1.000000" stroke="none" 
	d="
M174.531342,1.000000 
	C174.768585,3.268297 174.853348,5.623277 174.258759,7.792008 
	C163.848770,45.761971 153.264847,83.684601 142.990616,121.691010 
	C141.640671,126.684738 139.385971,128.436691 134.332184,128.097824 
	C128.198578,127.686562 122.003128,127.754196 115.859734,128.084686 
	C111.597931,128.313965 109.659584,126.802933 108.493561,122.656807 
	C101.164864,96.597466 93.287094,70.682259 89.176590,43.835609 
	C89.036407,42.920029 88.734108,42.029266 87.644211,41.072525 
	C86.860008,45.461239 86.330460,49.913780 85.249100,54.228012 
	C79.438332,77.411095 73.476257,100.556206 67.606941,123.724693 
	C66.850037,126.712486 65.350563,128.163147 62.020988,128.065186 
	C54.866890,127.854675 47.692253,127.771690 40.545788,128.085938 
	C36.261044,128.274338 34.874775,126.284019 33.847290,122.535439 
	C23.662523,85.378326 13.314350,48.265995 3.011131,11.141352 
	C2.567432,9.542613 2.111348,7.947311 1.330517,6.175204 
	C1.000000,4.355091 1.000000,2.710181 1.000000,1.000000 
	C10.354149,1.000000 19.708416,1.000000 29.493744,1.390524 
	C30.305124,2.872416 30.794029,3.938970 31.049919,5.058771 
	C37.806282,34.625473 44.538574,64.197670 51.179054,93.347847 
	C51.241512,93.163788 51.613121,92.291397 51.834984,91.382469 
	C58.650234,63.461483 65.471107,35.541824 72.227440,7.606562 
	C73.052605,4.194757 74.711098,2.610104 78.462868,2.770440 
	C84.948509,3.047611 91.460785,3.025265 97.949097,2.784126 
	C101.382637,2.656518 103.098045,3.844436 103.954437,7.176429 
	C108.918007,26.488468 114.157341,45.730598 118.999809,65.072380 
	C121.415520,74.721230 123.185715,84.531700 125.291092,94.472977 
	C130.259186,71.694016 135.028931,49.271076 140.086395,26.913214 
	C142.057343,18.200016 144.676239,9.633388 147.000000,0.999998 
	C156.020889,1.000000 165.041794,1.000000 174.531342,1.000000 
z"/>
<path fill="#565656" opacity="1.000000" stroke="none" 
	d="
M298.531372,1.000001 
	C299.333679,3.932463 299.912598,6.861375 299.955109,9.798051 
	C300.082733,18.617399 300.001068,27.439779 300.001068,35.351334 
	C308.241791,35.154076 316.361938,33.944565 324.182526,34.985676 
	C340.037994,37.096432 351.277588,47.612202 353.356293,63.501442 
	C354.895630,75.267723 355.029694,87.582603 353.385406,99.316147 
	C350.843353,117.456024 336.308014,128.765335 316.660034,129.836853 
	C303.230194,130.569260 290.146423,128.317719 277.328278,124.249931 
	C274.033356,123.204300 272.940674,121.455444 272.948151,118.105042 
	C273.031433,80.777214 272.992310,43.449123 273.037079,6.121164 
	C273.038788,4.688911 273.554230,3.257278 273.915161,1.412678 
	C282.020905,1.000000 290.041809,1.000000 298.531372,1.000001 
M300.454895,60.369251 
	C300.303223,72.151833 300.104401,83.934059 300.014679,95.717110 
	C299.942108,105.251160 300.165649,105.423149 309.852814,105.912148 
	C310.350983,105.937294 310.850037,105.950043 311.348816,105.957626 
	C321.728485,106.115334 326.803314,101.289764 326.979767,90.967171 
	C327.070709,85.646881 327.004517,80.323799 326.999329,75.001991 
	C326.985504,60.869057 320.095123,55.215767 306.385040,58.171494 
	C304.619232,58.552185 302.945740,59.360992 300.454895,60.369251 
z"/>
<path fill="#FE3203" opacity="1.000000" stroke="none" 
	d="
M452.818268,3.992024 
	C452.879425,10.149938 452.770935,16.315912 453.063141,22.462839 
	C453.248901,26.370581 451.447083,27.294849 447.982025,27.272404 
	C433.490845,27.178530 418.998688,27.237066 404.506866,27.239651 
	C402.716339,27.239971 400.925812,27.239697 398.817810,27.239697 
	C398.817810,36.711342 398.817810,45.625118 398.817810,55.139851 
	C407.849670,55.139851 416.790649,55.140373 425.731598,55.139641 
	C430.728760,55.139233 435.727020,55.198746 440.722748,55.113487 
	C444.077576,55.056232 445.553986,56.449581 445.448792,59.903519 
	C445.286652,65.227493 445.270996,70.564362 445.446960,75.887375 
	C445.574646,79.750641 444.106018,81.130753 440.165039,81.075272 
	C426.529083,80.883308 412.888763,81.001282 398.534637,81.001282 
	C398.534637,86.181122 398.533508,91.090843 398.534882,96.000572 
	C398.537323,104.662338 398.394257,113.327705 398.606201,121.984367 
	C398.713287,126.358902 397.494171,128.432556 392.664276,128.089722 
	C387.194946,127.701523 381.660004,127.733948 376.184998,128.080078 
	C371.376831,128.384048 369.886078,126.675964 369.906830,121.849365 
	C370.074554,82.872147 370.004272,43.893902 370.373840,4.280277 
	C372.494019,2.763057 374.247009,1.881529 376.000000,1.000001 
	C376.000000,1.000000 376.500000,1.000000 377.044647,1.296092 
	C379.388855,1.726808 381.188263,1.976122 382.988007,1.978528 
	C403.686829,2.006200 424.385742,1.973989 445.084473,2.026275 
	C447.540680,2.032480 449.995819,2.446074 452.451477,2.670826 
	C452.451477,2.670826 452.451416,2.770167 452.358765,2.971312 
	C452.450165,3.445645 452.634216,3.718833 452.818268,3.992024 
z"/>
<path fill="#FCFCFC" opacity="1.000000" stroke="none" 
	d="
M146.531342,0.999998 
	C144.676239,9.633388 142.057343,18.200016 140.086395,26.913214 
	C135.028931,49.271076 130.259186,71.694016 125.291092,94.472977 
	C123.185715,84.531700 121.415520,74.721230 118.999809,65.072380 
	C114.157341,45.730598 108.918007,26.488468 103.954437,7.176429 
	C103.098045,3.844436 101.382637,2.656518 97.949097,2.784126 
	C91.460785,3.025265 84.948509,3.047611 78.462868,2.770440 
	C74.711098,2.610104 73.052605,4.194757 72.227440,7.606562 
	C65.471107,35.541824 58.650234,63.461483 51.834984,91.382469 
	C51.613121,92.291397 51.241512,93.163788 51.179054,93.347847 
	C44.538574,64.197670 37.806282,34.625473 31.049919,5.058771 
	C30.794029,3.938970 30.305124,2.872416 29.962402,1.390524 
	C68.687561,1.000000 107.375122,1.000000 146.531342,0.999998 
z"/>
<path fill="#5C5C5C" opacity="1.000000" stroke="none" 
	d="
M696.444153,198.000000 
	C697.119202,192.513245 698.054810,186.977097 699.506836,181.579895 
	C699.810303,180.451706 701.923706,179.423004 703.373901,179.087952 
	C705.223999,178.660492 707.247681,178.984329 710.104004,178.984329 
	C708.006592,185.546600 706.125732,191.431137 704.122437,197.657837 
	C701.629456,198.000000 699.258850,198.000000 696.444153,198.000000 
z"/>
<path fill="#FD4011" opacity="1.000000" stroke="none" 
	d="
M452.405334,2.382202 
	C449.995819,2.446074 447.540680,2.032480 445.084473,2.026275 
	C424.385742,1.973989 403.686829,2.006200 382.988007,1.978528 
	C381.188263,1.976122 379.388855,1.726808 377.294647,1.296092 
	C401.687561,1.000000 426.375122,1.000000 451.531342,0.999999 
	C452.119720,1.364525 452.239471,1.729052 452.405334,2.382202 
z"/>
<path fill="#FD4011" opacity="1.000000" stroke="none" 
	d="
M375.583344,1.000001 
	C374.247009,1.881529 372.494019,2.763057 370.449341,3.816275 
	C370.388367,3.200098 370.619019,2.412229 370.924866,1.312180 
	C372.388885,1.000000 373.777802,1.000000 375.583344,1.000001 
z"/>
<path fill="#565656" opacity="1.000000" stroke="none" 
	d="
M207.914124,104.241272 
	C218.450165,109.716263 228.461639,107.390015 237.843246,102.611549 
	C242.765045,100.104668 245.503403,100.306007 248.205673,105.092880 
	C249.828537,107.967705 252.111923,110.474106 254.138962,113.115005 
	C255.925201,115.442184 255.421783,117.251183 253.261337,119.104393 
	C237.867950,132.308701 206.334335,133.819778 189.788681,122.066147 
	C181.844955,116.423111 177.079956,108.548569 176.454330,99.042786 
	C175.712616,87.773720 175.310364,76.315964 176.496796,65.123993 
	C178.441788,46.776436 190.834732,36.188931 211.278992,34.360031 
	C217.329224,33.818783 223.670288,34.157742 229.623672,35.356670 
	C246.398651,38.734917 256.330322,50.979610 256.925262,68.189377 
	C257.132294,74.178459 256.832001,80.185532 257.056183,86.173416 
	C257.197754,89.954819 255.620926,91.087578 252.027496,91.055283 
	C237.704987,90.926544 223.380676,90.999130 209.057022,90.997253 
	C207.258591,90.997017 205.460144,90.997215 203.379105,90.997215 
	C202.904648,96.294128 203.764511,100.617241 207.914124,104.241272 
M222.919113,57.359432 
	C221.117188,57.063103 219.321716,56.561131 217.512283,56.504456 
	C207.234329,56.182518 201.443649,63.323742 203.909546,73.326492 
	C212.806213,73.326492 221.731476,73.326492 230.620728,73.326492 
	C231.584991,64.775070 229.894440,61.092983 222.919113,57.359432 
z"/>
<path fill="#FE3904" opacity="1.000000" stroke="none" 
	d="
M505.996033,129.799576 
	C499.172272,129.039597 492.078400,129.210281 485.581512,127.324371 
	C472.380951,123.492508 463.383240,114.497688 461.980072,100.570633 
	C460.771759,88.577621 460.605530,76.262291 461.876129,64.290871 
	C463.531067,48.698555 473.654999,39.585991 489.399963,35.876419 
	C490.722137,35.691914 491.335022,35.464691 491.947876,35.237469 
	C492.887390,35.059959 493.826904,34.882450 495.669495,34.791111 
	C496.939056,34.831196 497.305511,34.785107 497.671967,34.739014 
	C497.984985,34.548836 498.298035,34.358665 498.844910,34.668213 
	C499.184906,37.089954 499.626404,39.066727 499.323486,40.921963 
	C498.787842,44.203037 497.671082,47.385422 497.039795,50.655880 
	C496.513550,53.382133 496.334534,56.175400 495.895050,59.070976 
	C495.788391,59.202965 495.455383,59.137119 495.162659,59.171844 
	C494.579529,59.456535 494.289093,59.706505 493.817688,60.249611 
	C492.044586,63.318825 489.273315,66.015305 489.079529,68.885780 
	C488.479126,77.779877 488.625854,86.748642 488.950623,95.671387 
	C489.130524,100.614754 493.398407,103.927986 497.857147,105.959358 
	C502.772247,108.198647 506.672852,105.950737 510.971802,105.277344 
	C511.238770,107.571114 511.493286,109.454010 511.828674,111.935371 
	C509.561218,111.680725 507.744751,111.476723 505.030396,111.171898 
	C505.363586,117.599182 505.679810,123.699379 505.996033,129.799576 
z"/>
<path fill="#FE4F03" opacity="1.000000" stroke="none" 
	d="
M595.983032,58.590637 
	C589.329041,61.002857 586.456055,65.899948 586.529663,72.812019 
	C586.589844,78.463120 586.506165,84.115685 586.556763,89.766960 
	C586.659485,101.248795 590.898071,105.563095 602.811523,106.555428 
	C604.323975,113.989304 597.766724,110.697044 595.419861,112.713295 
	C595.621399,115.673744 595.886780,118.451881 595.978760,121.235748 
	C596.072021,124.057281 595.993896,126.884468 595.990845,129.709183 
	C572.533875,128.527328 558.367188,113.143913 559.007996,90.518074 
	C559.261353,81.573151 558.696838,72.509666 559.963440,63.710136 
	C562.127563,48.675961 571.670959,39.710117 586.778870,36.139408 
	C590.053955,36.212791 593.476624,38.734005 595.013916,34.361885 
	C596.085693,34.258713 597.157471,34.155540 598.781738,34.313087 
	C599.881165,34.442886 600.428162,34.311966 600.975098,34.181046 
	C601.434265,34.135105 601.893494,34.089169 602.792114,34.362701 
	C603.072754,35.952183 602.913879,37.222195 602.733459,38.664803 
	C600.577271,39.200062 597.913391,39.861366 595.983032,40.340565 
	C595.983032,46.794537 595.983032,52.692589 595.983032,58.590637 
z"/>
<path fill="#FE6402" opacity="1.000000" stroke="none" 
	d="
M671.026001,127.855270 
	C656.137390,124.237343 645.700562,111.942085 645.157959,95.696251 
	C644.541382,77.235039 644.945862,58.740795 644.801636,40.261730 
	C644.775879,36.957577 646.195801,35.887566 649.316467,35.961483 
	C654.974060,36.095486 660.648010,36.218086 666.294189,35.931923 
	C670.595459,35.713924 672.146057,37.110607 672.081909,41.584991 
	C671.852905,57.565002 671.969604,73.550407 672.011719,89.533615 
	C672.025085,94.615227 672.705017,99.528259 676.820190,103.912628 
	C675.391968,109.331581 672.570496,113.969749 674.857117,119.263206 
	C677.256409,124.817307 676.495605,126.626305 671.026001,127.855270 
z"/>
<path fill="#FE7E05" opacity="1.000000" stroke="none" 
	d="
M790.649292,98.125023 
	C786.503113,93.221977 780.331299,93.574875 774.891724,91.945610 
	C768.874512,90.143326 762.659912,88.578445 757.091553,85.790894 
	C746.893494,80.685715 742.176941,71.974136 743.061340,60.452435 
	C743.910950,49.384460 749.708862,41.662407 759.865479,37.814144 
	C777.693237,31.059311 795.122314,33.157761 811.824829,41.851151 
	C812.956848,42.440384 813.303406,44.953899 813.551331,46.640633 
	C813.664368,47.410393 812.665466,48.357437 812.139893,49.204868 
	C809.692566,53.150917 808.063110,58.745857 804.522766,60.518002 
	C801.590576,61.985691 796.450562,58.572868 792.197144,57.989044 
	C786.839844,57.253708 781.392273,56.998417 775.978149,56.920609 
	C772.704956,56.873573 770.170715,58.565990 769.740967,62.141293 
	C769.258484,66.156342 772.031555,67.649849 775.232178,68.700821 
	C776.475342,69.109024 777.702209,69.567047 778.945435,70.742935 
	C775.428528,76.413460 777.204590,81.933456 777.423645,87.217430 
	C777.462036,88.144402 779.895752,89.979820 780.505249,89.718880 
	C786.318420,87.230019 789.005005,92.301315 793.529602,94.374107 
	C792.370056,95.884148 791.509705,97.004593 790.649292,98.125023 
z"/>
<path fill="#FE4204" opacity="1.000000" stroke="none" 
	d="
M506.419922,129.868469 
	C505.679810,123.699379 505.363586,117.599182 505.030396,111.171898 
	C507.744751,111.476723 509.561218,111.680725 511.828674,111.935371 
	C511.493286,109.454010 511.238770,107.571114 511.164398,105.001404 
	C515.305664,102.039413 517.250854,98.527130 517.318604,94.049553 
	C517.434448,86.392281 517.759521,78.710167 517.271729,71.084862 
	C517.062195,67.808533 515.039246,64.648201 513.882263,61.063492 
	C516.462524,54.135136 517.360107,63.148525 519.610352,60.962006 
	C519.223633,59.003445 518.545410,56.790592 518.393616,54.542206 
	C518.091309,50.062939 516.465454,45.359142 520.737671,41.517071 
	C521.524963,40.809055 520.939026,38.574131 520.986938,37.043987 
	C535.037842,41.460876 543.001648,51.449932 544.458923,65.629570 
	C545.591980,76.654694 545.627930,88.001266 544.403870,99.010666 
	C542.604065,115.199104 531.474854,125.792130 515.249695,128.867920 
	C512.479736,129.393021 509.647369,129.589218 506.419922,129.868469 
z"/>
<path fill="#FE7102" opacity="1.000000" stroke="none" 
	d="
M703.000061,36.166828 
	C708.819824,36.115547 714.642639,36.160168 720.458191,35.976883 
	C723.925232,35.867615 725.067261,37.307556 725.054016,40.724670 
	C724.954590,66.347107 724.931763,91.970459 725.072266,117.592499 
	C725.091614,121.107918 723.565613,122.883354 720.594604,123.777893 
	C715.679749,125.257675 710.715637,126.573891 705.211182,127.618095 
	C701.334351,122.992485 696.812378,119.353683 697.495850,113.008453 
	C697.789734,110.280907 697.714050,107.513535 697.806274,104.764259 
	C697.806274,104.764259 697.915771,104.914429 698.254639,104.918365 
	C702.416504,104.102043 704.035278,99.925369 701.938416,96.452545 
	C701.195190,95.221550 700.015747,93.824768 700.107666,92.583008 
	C701.497314,73.797935 696.614624,54.684448 703.000061,36.166828 
z"/>
<path fill="#FE8004" opacity="1.000000" stroke="none" 
	d="
M790.665039,98.491745 
	C791.509705,97.004593 792.370056,95.884148 793.529602,94.374107 
	C789.005005,92.301315 786.318420,87.230019 780.505249,89.718880 
	C779.895752,89.979820 777.462036,88.144402 777.423645,87.217430 
	C777.204590,81.933456 775.428528,76.413460 779.036743,71.081627 
	C786.514099,72.225693 794.219727,72.927567 801.234680,75.507332 
	C812.956421,79.818062 818.273438,88.617569 817.990967,100.469185 
	C817.693176,112.964149 811.293457,122.193459 799.852661,126.490662 
	C790.808472,129.887680 781.429565,130.547073 771.446350,129.130188 
	C771.011963,124.490112 770.888123,120.418785 771.113525,116.366882 
	C771.173950,115.281090 772.072693,113.642769 772.975647,113.308281 
	C776.591797,111.968704 780.360901,111.042114 784.073486,109.962776 
	C783.064026,108.943748 781.638062,108.741745 780.253235,108.381744 
	C778.814392,108.007744 777.415222,107.480995 775.998718,107.021034 
	C779.192200,106.524170 782.427490,106.207855 785.567871,105.481300 
	C788.926208,104.704315 790.919067,102.564919 790.665039,98.491745 
z"/>
<path fill="#595959" opacity="1.000000" stroke="none" 
	d="
M457.062531,174.788330 
	C453.936829,173.653214 450.866272,173.208420 448.261658,171.862122 
	C444.809601,170.077789 440.924927,168.209839 438.639221,165.276703 
	C433.506561,158.690125 436.322784,150.054306 443.973938,146.735214 
	C451.825592,143.329132 462.212219,144.796478 469.184540,150.547455 
	C467.428650,153.218933 465.642700,155.936157 463.718170,158.864227 
	C458.497559,157.108673 453.510925,154.179016 446.918335,158.071121 
	C449.340454,159.355820 450.842041,160.375793 452.495361,160.981918 
	C455.765259,162.180679 459.224976,162.903687 462.413910,164.271698 
	C467.484406,166.446854 470.165649,170.468567 469.990784,176.077515 
	C469.814331,181.736008 467.267120,185.879715 461.897644,188.153580 
	C452.667236,192.062469 441.956879,190.054276 435.035431,182.839142 
	C436.832428,180.179581 438.669342,177.460968 440.385315,174.921387 
	C444.612274,176.295563 448.425964,177.935486 452.406403,178.662857 
	C454.437012,179.033936 458.208466,179.672699 457.062531,174.788330 
z"/>
<path fill="#FE5904" opacity="1.000000" stroke="none" 
	d="
M596.445190,129.812683 
	C595.993896,126.884468 596.072021,124.057281 595.978760,121.235748 
	C595.886780,118.451881 595.621399,115.673744 595.419861,112.713295 
	C597.766724,110.697044 604.323975,113.989304 603.195190,106.616409 
	C608.124329,104.653275 613.059387,103.311584 617.799072,101.467690 
	C620.554504,100.395729 622.464355,100.402824 624.154907,103.040588 
	C626.657593,106.945557 629.224304,110.816345 631.929749,114.582428 
	C634.263855,117.831688 633.308655,119.838394 630.139465,121.824142 
	C619.927368,128.222809 608.814636,130.650497 596.445190,129.812683 
z"/>
<path fill="#585858" opacity="1.000000" stroke="none" 
	d="
M629.067261,168.480392 
	C629.129456,171.253555 629.202209,173.585312 629.170898,175.915665 
	C629.046570,185.153015 624.128418,189.957977 614.795105,190.003845 
	C605.163513,190.051193 600.127808,185.216812 599.997620,175.786911 
	C599.976929,174.288132 599.979065,172.788620 599.997375,171.289780 
	C600.102356,162.700775 604.123901,158.046143 612.243530,157.103073 
	C621.245300,156.057541 626.916199,159.751785 629.067261,168.480392 
M612.207703,179.285049 
	C615.919128,181.171997 617.922546,180.122162 618.013184,175.874756 
	C618.052063,174.049759 618.437378,172.078857 617.880188,170.441391 
	C617.406372,169.048798 615.805542,168.039673 614.703369,166.860855 
	C613.525635,167.990601 611.524170,169.001389 611.340332,170.274673 
	C610.948914,172.985519 611.501465,175.832657 612.207703,179.285049 
z"/>
<path fill="#585858" opacity="1.000000" stroke="none" 
	d="
M480.623627,188.765625 
	C473.175568,184.344299 470.315857,172.898621 474.199982,164.343552 
	C477.047577,158.071518 485.531616,155.230438 493.655243,157.980682 
	C495.337250,158.550140 497.034546,159.456161 498.361786,160.620773 
	C502.458862,164.215805 503.811096,176.570984 500.969025,182.773315 
	C498.629791,187.878159 492.907928,190.630219 485.847443,189.930328 
	C484.209595,189.767960 482.605103,189.269180 480.623627,188.765625 
M489.224243,179.878632 
	C489.683899,176.145752 490.310852,172.416336 490.388611,168.675522 
	C490.398193,168.214935 487.475403,167.693390 485.911530,167.200104 
	C485.324799,170.312134 484.279968,173.438599 484.377319,176.529068 
	C484.416107,177.760498 486.980133,178.912354 489.224243,179.878632 
z"/>
<path fill="#FD7C05" opacity="1.000000" stroke="none" 
	d="
M775.621704,106.901489 
	C777.415222,107.480995 778.814392,108.007744 780.253235,108.381744 
	C781.638062,108.741745 783.064026,108.943748 784.073486,109.962776 
	C780.360901,111.042114 776.591797,111.968704 772.975647,113.308281 
	C772.072693,113.642769 771.173950,115.281090 771.113525,116.366882 
	C770.888123,120.418785 771.011963,124.490112 771.011353,128.952164 
	C760.445435,128.937042 751.205933,124.760582 742.370361,119.337044 
	C739.666870,117.677597 739.207703,115.816788 740.829407,113.153038 
	C743.328369,109.048195 745.762207,104.901459 748.126221,100.717415 
	C749.603943,98.102028 751.205322,98.261032 753.864807,99.315079 
	C760.876526,102.094078 768.103455,104.329865 775.621704,106.901489 
z"/>
<path fill="#FD5906" opacity="1.000000" stroke="none" 
	d="
M596.386719,58.593544 
	C595.983032,52.692589 595.983032,46.794537 595.983032,40.340565 
	C597.913391,39.861366 600.577271,39.200062 602.733459,38.664803 
	C602.913879,37.222195 603.072754,35.952183 603.131714,34.438686 
	C612.256897,34.090683 620.567810,37.183571 628.537964,41.478039 
	C631.549255,43.100609 631.931763,45.158466 629.947937,47.970264 
	C627.270386,51.765408 624.640503,55.611603 622.279663,59.606995 
	C620.510437,62.601086 618.483643,62.720310 615.632751,61.350609 
	C609.665771,58.483856 603.427551,57.070465 596.386719,58.593544 
z"/>
<path fill="#575757" opacity="1.000000" stroke="none" 
	d="
M539.001831,168.972473 
	C539.002563,171.458618 539.060425,173.459946 538.991638,175.456909 
	C538.866455,179.090790 540.270813,180.848770 544.650146,179.727478 
	C544.650146,172.777863 544.650146,165.708496 544.650146,158.324844 
	C548.585144,158.324844 551.970459,158.324844 555.979431,158.324844 
	C555.979431,167.413666 556.067993,176.356049 555.854004,185.291183 
	C555.830444,186.276794 554.223999,187.778046 553.095093,188.079620 
	C549.739868,188.975845 546.271362,189.793564 542.820618,189.920258 
	C533.052795,190.278870 527.990662,185.265793 527.842529,175.434479 
	C527.757812,169.815704 527.827148,164.194626 527.827148,158.290100 
	C531.613708,158.290100 534.880859,158.290100 539.001831,158.290100 
	C539.001831,161.656570 539.001831,165.071136 539.001831,168.972473 
z"/>
<path fill="#565656" opacity="1.000000" stroke="none" 
	d="
M647.782227,166.895218 
	C646.556335,168.158798 645.163818,169.410522 645.108643,170.718704 
	C644.863647,176.520081 645.002441,182.337677 645.002441,188.573975 
	C641.357483,188.573975 637.986389,188.573975 633.868652,188.573975 
	C633.868652,179.585083 633.814880,170.503815 633.961365,161.425766 
	C633.974365,160.619034 635.220947,159.227020 636.013550,159.135330 
	C641.550171,158.494904 647.167786,157.454163 652.661865,157.860596 
	C658.018555,158.256836 661.371399,162.431808 661.784851,167.653946 
	C662.330933,174.549179 661.919250,181.520248 661.919250,188.732620 
	C658.357361,188.732620 655.093140,188.732620 650.997375,188.732620 
	C650.997375,183.158188 651.213318,177.565048 650.870361,172.006393 
	C650.762634,170.259750 649.153198,168.605759 647.782227,166.895218 
z"/>
<path fill="#565656" opacity="1.000000" stroke="none" 
	d="
M757.043823,157.005127 
	C767.921875,157.600952 772.084778,161.944702 772.159424,172.382614 
	C772.197327,177.686493 772.166016,182.990860 772.166016,188.649094 
	C768.413757,188.649094 765.030945,188.649094 760.994507,188.649094 
	C760.994507,182.951935 761.052612,177.349075 760.976013,171.748047 
	C760.915222,167.302261 760.435364,166.961319 755.022522,167.187057 
	C755.022522,174.232315 755.022522,181.317368 755.022522,188.693359 
	C751.254517,188.693359 747.993103,188.693359 743.896912,188.693359 
	C743.896912,179.549713 743.827271,170.311157 744.023682,161.078262 
	C744.040100,160.305664 745.745972,159.172440 746.841431,158.894165 
	C750.048889,158.079453 753.344666,157.612320 757.043823,157.005127 
z"/>
<path fill="#595959" opacity="1.000000" stroke="none" 
	d="
M673.933411,176.242233 
	C668.841858,174.192032 666.361084,170.787430 667.135498,165.604126 
	C667.922241,160.337769 671.729919,158.169037 676.505859,157.362473 
	C682.231506,156.395508 687.673767,157.135452 692.887817,160.268951 
	C690.920288,164.478592 689.672852,168.877731 683.603027,166.125381 
	C682.137085,165.460648 680.113037,166.026596 678.345642,166.026596 
	C678.233704,166.523087 678.121765,167.019592 678.009827,167.516083 
	C679.990234,168.048370 681.954407,168.653122 683.953857,169.100143 
	C691.855164,170.866669 695.777832,176.106277 693.302612,182.504257 
	C692.383911,184.878952 690.173401,187.581009 687.905090,188.455170 
	C680.352966,191.365616 672.953125,190.404037 665.640320,185.350616 
	C667.092773,182.870193 668.463501,180.529449 669.524414,178.717636 
	C674.019470,179.493500 677.967773,180.175003 681.916138,180.856506 
	C682.071472,180.129456 682.226746,179.402390 682.382019,178.675339 
	C679.688416,177.904694 676.994751,177.134048 673.933411,176.242233 
z"/>
<path fill="#FE6C03" opacity="1.000000" stroke="none" 
	d="
M697.394531,104.818100 
	C697.714050,107.513535 697.789734,110.280907 697.495850,113.008453 
	C696.812378,119.353683 701.334351,122.992485 704.811340,127.564117 
	C693.922546,130.587936 682.846558,130.993317 671.380615,128.038300 
	C676.495605,126.626305 677.256409,124.817307 674.857117,119.263206 
	C672.570496,113.969749 675.391968,109.331581 676.997742,104.202591 
	C683.540100,107.282036 690.265625,105.994949 697.394531,104.818100 
z"/>
<path fill="#5A5A5A" opacity="1.000000" stroke="none" 
	d="
M786.183472,189.170532 
	C777.284302,185.135010 773.799622,172.929871 778.563049,163.786987 
	C782.378296,156.464172 793.148804,154.790253 802.187683,160.401672 
	C800.099670,163.952271 799.676819,168.802490 793.059387,167.055618 
	C788.650391,165.891769 788.026123,169.554016 788.183838,173.072327 
	C788.331787,176.371063 787.951172,181.181686 792.772949,179.854446 
	C798.960144,178.151352 800.584656,181.624802 802.760437,186.163834 
	C797.962097,190.223801 792.498352,190.759949 786.183472,189.170532 
z"/>
<path fill="#575757" opacity="1.000000" stroke="none" 
	d="
M569.164429,189.209869 
	C564.375610,187.484482 562.033936,184.233322 561.965332,179.658813 
	C561.821045,170.040176 561.921509,160.417862 561.921509,150.395691 
	C565.182983,150.395691 568.224731,150.395691 571.645142,150.395691 
	C572.098267,152.969254 572.575317,155.679001 573.073975,158.511002 
	C574.890076,158.737869 576.485779,158.937195 578.196106,159.150848 
	C578.196106,162.109100 578.196106,164.865036 578.196106,167.748672 
	C576.456970,167.913513 574.998108,168.051804 573.558411,168.188263 
	C571.829468,178.015793 572.422852,179.466858 578.611572,180.644943 
	C580.281677,189.884888 578.911682,191.198776 569.164429,189.209869 
z"/>
<path fill="#565656" opacity="1.000000" stroke="none" 
	d="
M507.825195,171.959564 
	C507.825165,163.189529 507.825165,154.912521 507.825165,146.318298 
	C511.688354,146.318298 515.063049,146.318298 519.002258,146.318298 
	C519.002258,155.659622 519.161804,164.762314 518.929260,173.855011 
	C518.825928,177.895111 519.721619,180.428268 524.145081,180.009399 
	C524.477600,180.486511 524.871094,180.805237 524.819580,181.014191 
	C524.083313,183.998978 527.550720,188.399384 522.346802,189.832443 
	C516.956726,191.316757 510.492676,188.480637 509.049530,183.727158 
	C507.970428,180.172684 508.186066,176.225128 507.825195,171.959564 
z"/>
<path fill="#FE3E05" opacity="1.000000" stroke="none" 
	d="
M520.691284,36.814163 
	C520.939026,38.574131 521.524963,40.809055 520.737671,41.517071 
	C516.465454,45.359142 518.091309,50.062939 518.393616,54.542206 
	C518.545410,56.790592 519.223633,59.003445 519.610352,60.962006 
	C517.360107,63.148525 516.462524,54.135136 513.545532,60.894802 
	C507.830750,57.311462 501.973816,57.667469 496.001709,58.938988 
	C496.334534,56.175400 496.513550,53.382133 497.039795,50.655880 
	C497.671082,47.385422 498.787842,44.203037 499.323486,40.921963 
	C499.626404,39.066727 499.184906,37.089954 499.133789,34.731468 
	C506.257782,35.058121 513.326721,35.821232 520.691284,36.814163 
M517.295532,39.433643 
	C517.010742,39.705509 516.725891,39.977379 516.441101,40.249252 
	C516.553833,40.367081 516.758362,40.593616 516.766113,40.587070 
	C517.066528,40.333397 517.348938,40.058411 517.295532,39.433643 
z"/>
<path fill="#595959" opacity="1.000000" stroke="none" 
	d="
M725.988892,151.161865 
	C726.094666,149.238419 726.200928,147.796295 726.318909,146.194885 
	C730.140198,146.194885 733.585266,146.194885 737.439331,146.194885 
	C737.439331,160.375900 737.439331,174.402496 737.439331,188.720627 
	C733.674072,188.720627 730.121460,188.720627 725.989319,188.720627 
	C725.989319,176.183746 725.989319,163.913467 725.988892,151.161865 
z"/>
<path fill="#565656" opacity="1.000000" stroke="none" 
	d="
M594.462402,158.584198 
	C594.783264,168.691132 594.783264,178.456604 594.783264,188.610382 
	C591.297119,188.610382 587.929626,188.610382 584.180115,188.610382 
	C584.180115,178.593353 584.180115,168.588226 584.180115,158.242737 
	C587.622986,158.242737 590.882263,158.242737 594.462402,158.584198 
z"/>
<path fill="#FE6C03" opacity="1.000000" stroke="none" 
	d="
M702.592285,36.094940 
	C696.614624,54.684448 701.497314,73.797935 700.107666,92.583008 
	C700.015747,93.824768 701.195190,95.221550 701.938416,96.452545 
	C704.035278,99.925369 702.416504,104.102043 698.178345,104.865265 
	C697.845337,83.727562 697.942749,62.646927 697.992065,41.566181 
	C697.999084,38.581066 697.838318,35.645439 702.592285,36.094940 
z"/>
<path fill="#5C5C5C" opacity="1.000000" stroke="none" 
	d="
M593.330933,152.566589 
	C589.918457,154.647903 586.627686,154.769485 584.717041,151.578934 
	C583.653931,149.803696 583.379944,146.420593 584.408752,144.844910 
	C585.453003,143.245453 588.623901,142.100555 590.710815,142.306030 
	C595.370422,142.764816 596.505371,147.300339 593.330933,152.566589 
z"/>
<path fill="#5B5B5B" opacity="1.000000" stroke="none" 
	d="
M812.831787,189.955750 
	C810.341248,188.454666 807.630127,187.281311 806.390015,185.222061 
	C805.680725,184.044220 806.787842,180.528748 808.113525,179.674942 
	C809.883911,178.534698 812.915833,178.236435 814.920837,178.946472 
	C816.402588,179.471176 817.753296,182.091370 818.019592,183.942398 
	C818.486023,187.184982 816.329651,189.115875 812.831787,189.955750 
z"/>
<path fill="#FD5906" opacity="1.000000" stroke="none" 
	d="
M594.633911,34.289955 
	C593.476624,38.734005 590.053955,36.212791 587.167358,36.160164 
	C589.384216,35.320690 591.819031,34.769360 594.633911,34.289955 
z"/>
<path fill="#FE3E05" opacity="1.000000" stroke="none" 
	d="
M491.611572,35.192291 
	C491.335022,35.464691 490.722137,35.691914 489.763733,35.892532 
	C490.037231,35.626328 490.656281,35.386719 491.611572,35.192291 
z"/>
<path fill="#FD5906" opacity="1.000000" stroke="none" 
	d="
M600.654175,34.099514 
	C600.428162,34.311966 599.881165,34.442886 599.182129,34.380554 
	C599.464478,34.130859 599.898865,34.074421 600.654175,34.099514 
z"/>
<path fill="#FE3E05" opacity="1.000000" stroke="none" 
	d="
M497.453857,34.504982 
	C497.305511,34.785107 496.939056,34.831196 496.016541,34.891891 
	C496.052246,34.694649 496.643982,34.482800 497.453857,34.504982 
z"/>
<path fill="#FD4011" opacity="1.000000" stroke="none" 
	d="
M452.878571,3.745593 
	C452.634216,3.718833 452.450165,3.445645 452.347046,2.927474 
	C452.598297,2.954716 452.768585,3.226941 452.878571,3.745593 
z"/>
<path fill="#FDFDFD" opacity="1.000000" stroke="none" 
	d="
M300.842163,60.170364 
	C302.945740,59.360992 304.619232,58.552185 306.385040,58.171494 
	C320.095123,55.215767 326.985504,60.869057 326.999329,75.001991 
	C327.004517,80.323799 327.070709,85.646881 326.979767,90.967171 
	C326.803314,101.289764 321.728485,106.115334 311.348816,105.957626 
	C310.850037,105.950043 310.350983,105.937294 309.852814,105.912148 
	C300.165649,105.423149 299.942108,105.251160 300.014679,95.717110 
	C300.104401,83.934059 300.303223,72.151833 300.842163,60.170364 
z"/>
<path fill="#F7F7F7" opacity="1.000000" stroke="none" 
	d="
M223.265488,57.529808 
	C229.894440,61.092983 231.584991,64.775070 230.620728,73.326492 
	C221.731476,73.326492 212.806213,73.326492 203.909546,73.326492 
	C201.443649,63.323742 207.234329,56.182518 217.512283,56.504456 
	C219.321716,56.561131 221.117188,57.063103 223.265488,57.529808 
z"/>
<path fill="#FEFBFA" opacity="1.000000" stroke="none" 
	d="
M495.895081,59.070976 
	C501.973816,57.667469 507.830750,57.311462 513.503418,61.266483 
	C515.039246,64.648201 517.062195,67.808533 517.271729,71.084862 
	C517.759521,78.710167 517.434448,86.392281 517.318604,94.049553 
	C517.250854,98.527130 515.305664,102.039413 511.151917,104.590546 
	C506.672852,105.950737 502.772247,108.198647 497.857147,105.959358 
	C493.398407,103.927986 489.130524,100.614754 488.950623,95.671387 
	C488.625854,86.748642 488.479126,77.779877 489.079529,68.885780 
	C489.273315,66.015305 492.044586,63.318825 494.114380,60.222221 
	C494.879791,59.646839 495.167572,59.391979 495.455383,59.137123 
	C495.455383,59.137119 495.788391,59.202965 495.895081,59.070976 
z"/>
<path fill="#FE3E05" opacity="1.000000" stroke="none" 
	d="
M495.162659,59.171844 
	C495.167572,59.391979 494.879791,59.646839 494.295288,59.929085 
	C494.289093,59.706505 494.579529,59.456535 495.162659,59.171844 
z"/>
<path fill="#F5F5F5" opacity="1.000000" stroke="none" 
	d="
M611.937378,178.954498 
	C611.501465,175.832657 610.948914,172.985519 611.340332,170.274673 
	C611.524170,169.001389 613.525635,167.990601 614.703369,166.860870 
	C615.805542,168.039673 617.406372,169.048798 617.880188,170.441391 
	C618.437378,172.078857 618.052063,174.049759 618.013184,175.874756 
	C617.922546,180.122162 615.919128,181.171997 611.937378,178.954498 
z"/>
<path fill="#F4F4F4" opacity="1.000000" stroke="none" 
	d="
M488.809387,179.989532 
	C486.980133,178.912354 484.416107,177.760498 484.377319,176.529068 
	C484.279968,173.438599 485.324799,170.312134 485.911530,167.200104 
	C487.475403,167.693390 490.398193,168.214935 490.388611,168.675522 
	C490.310852,172.416336 489.683899,176.145752 488.809387,179.989532 
z"/>
<path fill="#FE4204" opacity="1.000000" stroke="none" 
	d="
M517.464600,39.609947 
	C517.348938,40.058411 517.066528,40.333397 516.766113,40.587070 
	C516.758362,40.593616 516.553833,40.367081 516.441101,40.249252 
	C516.725891,39.977379 517.010742,39.705509 517.464600,39.609947 
z"/>
</svg>